name GIL06_static.mot
datacolumns 141
datarows 4
range 0.00833333 0.03333334
endheader

                time	           pelvis_tx	           pelvis_ty	           pelvis_tz	         pelvis_tilt	         pelvis_list	     pelvis_rotation	       hip_flexion_r	     hip_adduction_r	      hip_rotation_r	        knee_angle_r	       ankle_angle_r	    subtalar_angle_r	         mtp_angle_r	       hip_flexion_l	     hip_adduction_l	      hip_rotation_l	        knee_angle_l	       ankle_angle_l	    subtalar_angle_l	         mtp_angle_l	    lumbar_extension	      lumbar_bending	     lumbar_rotation	    ground_marker_px	    ground_marker_py	    ground_marker_pz	    ground_marker_px	    ground_marker_py	    ground_marker_pz	    ground_marker_px	    ground_marker_py	    ground_marker_pz	    ground_marker_px	    ground_marker_py	    ground_marker_pz	    ground_marker_px	    ground_marker_py	    ground_marker_pz	    ground_marker_px	    ground_marker_py	    ground_marker_pz	    ground_marker_px	    ground_marker_py	    ground_marker_pz	    ground_marker_px	    ground_marker_py	    ground_marker_pz	    ground_marker_px	    ground_marker_py	    ground_marker_pz	    ground_marker_px	    ground_marker_py	    ground_marker_pz	    ground_marker_px	    ground_marker_py	    ground_marker_pz	    ground_marker_px	    ground_marker_py	    ground_marker_pz	    ground_marker_px	    ground_marker_py	    ground_marker_pz	    ground_marker_px	    ground_marker_py	    ground_marker_pz	    ground_marker_px	    ground_marker_py	    ground_marker_pz	    ground_marker_px	    ground_marker_py	    ground_marker_pz	    ground_marker_px	    ground_marker_py	    ground_marker_pz	    ground_marker_px	    ground_marker_py	    ground_marker_pz	    ground_marker_px	    ground_marker_py	    ground_marker_pz	    ground_marker_px	    ground_marker_py	    ground_marker_pz	    ground_marker_px	    ground_marker_py	    ground_marker_pz	    ground_marker_px	    ground_marker_py	    ground_marker_pz	    ground_marker_px	    ground_marker_py	    ground_marker_pz	    ground_marker_px	    ground_marker_py	    ground_marker_pz	    ground_marker_px	    ground_marker_py	    ground_marker_pz	    ground_marker_px	    ground_marker_py	    ground_marker_pz	    ground_marker_px	    ground_marker_py	    ground_marker_pz	    ground_marker_px	    ground_marker_py	    ground_marker_pz	    ground_marker_px	    ground_marker_py	    ground_marker_pz	    ground_marker_px	    ground_marker_py	    ground_marker_pz	    ground_marker_px	    ground_marker_py	    ground_marker_pz	    ground_marker_px	    ground_marker_py	    ground_marker_pz	    ground_marker_px	    ground_marker_py	    ground_marker_pz	    ground_marker_px	    ground_marker_py	    ground_marker_pz	    ground_marker_px	    ground_marker_py	    ground_marker_pz	    ground_marker_px	    ground_marker_py	    ground_marker_pz	    ground_marker_px	    ground_marker_py	    ground_marker_pz	    ground_marker_px	    ground_marker_py	    ground_marker_pz	    ground_marker_px	    ground_marker_py	    ground_marker_pz	
          0.00833333	          0.85483211	          0.85348570	         -0.24177635	         -8.30517006	          0.04521923	          0.01868559	          8.09770393	         -1.76472235	          5.35967445	         -0.60821360	         -2.27443075	          0.00000000	          0.00000000	         10.03517914	         -2.10205221	         -4.97447205	         -2.17085600	         -0.53885299	          0.00000000	          0.00000000	          7.89908552	         -0.29872406	          1.34467375	          0.74114740	          0.78539181	         -0.24323481	          0.72019368	          0.79073763	         -0.16401100	          0.72018868	          0.79087037	         -0.31964004	          0.71885127	          0.41988760	         -0.15290177	          0.73112154	          0.42889556	         -0.33324179	          0.71606219	          0.05904915	         -0.11678196	          0.72631669	          0.05669998	         -0.36846218	          0.85483211	          0.85348570	         -0.24177635	          0.85483605	          0.85338062	         -0.11868357	          0.85482818	          0.85359073	         -0.36486912	          0.61539352	          0.94349062	         -0.20806687	          0.61171401	          0.94202220	         -0.26220810	          0.72572720	          0.42205387	         -0.07975616	          0.72466773	          0.43145016	         -0.40641329	          0.70775992	          0.42396697	         -0.22381076	          0.72601026	          0.41077647	         -0.25653923	          0.70586050	          0.06303102	         -0.07779067	          0.70246965	          0.06020467	         -0.40224507	          0.72198969	          0.06658656	         -0.15267265	          0.72235262	          0.07211440	         -0.32571343	          0.65353841	          0.05019511	         -0.12463037	          0.67226934	          0.04713226	         -0.33436716	          0.77575171	          1.28987300	         -0.26462480	          0.83437920	          1.22146630	         -0.26449609	          0.65767241	          1.35144079	         -0.24786600	          0.79323775	          1.29709971	         -0.21159357	          0.79129755	          1.29673958	         -0.29413703	          0.82488233	          0.04398884	         -0.10539427	          0.82173628	          0.04844833	         -0.38370585	          0.88514894	          0.57493138	         -0.08903781	          0.90698189	          0.60716313	         -0.34685755	          0.84683073	          0.59696001	         -0.10935578	          0.85863656	          0.62213123	         -0.35018882	          0.81947792	          0.52404916	         -0.11341207	          0.84020579	          0.55069709	         -0.35074192	          0.79895353	          0.20900512	         -0.10349154	          0.68566620	          0.17527632	         -0.46034947	          0.75287563	          0.21457338	         -0.11691623	          0.69169253	          0.18444473	         -0.41178089	
          0.01666667	          0.85485876	          0.85349059	         -0.24174556	         -8.31103706	          0.02586810	          0.04814116	          8.09060478	         -1.73748994	          5.34664202	         -0.59785992	         -2.25493836	          0.00000000	          0.00000000	         10.05048752	         -2.11989450	         -4.95074129	         -2.18033457	         -0.53806651	          0.00000000	          0.00000000	          7.86814737	         -0.30938485	          1.33789980	          0.74116576	          0.78540885	         -0.24312648	          0.72026050	          0.79076701	         -0.16389085	          0.72016227	          0.79087830	         -0.31951991	          0.71884084	          0.41990846	         -0.15290560	          0.73114729	          0.42888510	         -0.33319178	          0.71606112	          0.05903906	         -0.11680199	          0.72633219	          0.05668622	         -0.36844569	          0.85485876	          0.85349059	         -0.24174556	          0.85493648	          0.85340261	         -0.11866225	          0.85478109	          0.85357863	         -0.36482888	          0.61541450	          0.94353586	         -0.20807968	          0.61174858	          0.94204694	         -0.26218367	          0.72574431	          0.42204869	         -0.07976183	          0.72467875	          0.43145230	         -0.40636158	          0.70822489	          0.42374411	         -0.22418705	          0.72591203	          0.41085419	         -0.25650766	          0.70587426	          0.06301887	         -0.07780661	          0.70247841	          0.06019417	         -0.40222347	          0.72187197	          0.06666996	         -0.15271176	          0.72241360	          0.07213887	         -0.32571018	          0.65354019	          0.05020735	         -0.12463019	          0.67228615	          0.04712817	         -0.33435917	          0.77569968	          1.28974712	         -0.26466572	          0.83428341	          1.22130275	         -0.26454300	          0.65768534	          1.35138988	         -0.24780008	          0.79321891	          1.29698038	         -0.21151704	          0.79123259	          1.29659355	         -0.29431581	          0.82498717	          0.04403968	         -0.10559614	          0.82172567	          0.04844810	         -0.38370717	          0.88519454	          0.57495660	         -0.08900971	          0.90699524	          0.60714304	         -0.34687749	          0.84674346	          0.59694678	         -0.10942418	          0.85868478	          0.62207693	         -0.35019642	          0.81957358	          0.52402240	         -0.11356396	          0.84020579	          0.55069709	         -0.35074192	          0.79894930	          0.20900737	         -0.10350001	          0.68562579	          0.17527090	         -0.46031803	          0.75294065	          0.21457820	         -0.11679387	          0.69168127	          0.18445589	         -0.41178700	
          0.02500000	          0.85487533	          0.85348976	         -0.24172799	         -8.31476784	          0.01482903	          0.06793488	          8.08907700	         -1.72114372	          5.33346081	         -0.59902465	         -2.24223399	          0.00000000	          0.00000000	         10.06531525	         -2.12880945	         -4.94450235	         -2.19648862	         -0.53225851	          0.00000000	          0.00000000	          7.86236143	         -0.35280401	          1.37810576	          0.74118066	          0.78540981	         -0.24306035	          0.72030342	          0.79077965	         -0.16381688	          0.72014433	          0.79088151	         -0.31944585	          0.71885401	          0.41994113	         -0.15291497	          0.73119432	          0.42888230	         -0.33315685	          0.71604669	          0.05903114	         -0.11683463	          0.72633553	          0.05668528	         -0.36842999	          0.85487533	          0.85348976	         -0.24172799	          0.85500109	          0.85340923	         -0.11865238	          0.85474950	          0.85357034	         -0.36480361	          0.61546397	          0.94356090	         -0.20807765	          0.61175507	          0.94205022	         -0.26214609	          0.72576934	          0.42206436	         -0.07977182	          0.72470438	          0.43145546	         -0.40632454	          0.70873654	          0.42336100	         -0.22425625	          0.72596121	          0.41084546	         -0.25668433	          0.70586658	          0.06300890	         -0.07783730	          0.70247173	          0.06019722	         -0.40220031	          0.72175950	          0.06674583	         -0.15275654	          0.72230619	          0.07221268	         -0.32567075	          0.65354234	          0.05021329	         -0.12462618	          0.67230260	          0.04712513	         -0.33434865	          0.77572167	          1.28968799	         -0.26468593	          0.83429390	          1.22123373	         -0.26457125	          0.65772545	          1.35136831	         -0.24778533	          0.79329908	          1.29696143	         -0.21160869	          0.79122448	          1.29650772	         -0.29431233	          0.82503289	          0.04405861	         -0.10568705	          0.82173151	          0.04844583	         -0.38369784	          0.88524872	          0.57499325	         -0.08898279	          0.90701669	          0.60713291	         -0.34687567	          0.84669983	          0.59694010	         -0.10945838	          0.85891765	          0.62219250	         -0.35003930	          0.81975526	          0.52400541	         -0.11359085	          0.84027541	          0.55068684	         -0.35075349	          0.79895800	          0.20899773	         -0.10350968	          0.68558431	          0.17527114	         -0.46030593	          0.75312459	          0.21453178	         -0.11663751	          0.69156706	          0.18448666	         -0.41183072	
          0.03333334	          0.85488284	          0.85347390	         -0.24171957	         -8.31888580	          0.01872668	          0.07649898	          8.09664536	         -1.72407663	          5.32983351	         -0.61313051	         -2.24221921	          0.00000000	          0.00000000	         10.08176231	         -2.12004209	         -4.95994616	         -2.21932554	         -0.52371025	          0.00000000	          0.00000000	          7.81206322	         -0.28065953	          1.49338162	          0.74119174	          0.78538787	         -0.24304655	          0.72031552	          0.79076451	         -0.16380002	          0.72013831	          0.79088432	         -0.31942898	          0.71888995	          0.41997835	         -0.15292349	          0.73126465	          0.42888933	         -0.33312774	          0.71601760	          0.05902969	         -0.11685858	          0.72632384	          0.05669701	         -0.36841780	          0.85488284	          0.85347390	         -0.24171957	          0.85502297	          0.85337913	         -0.11863983	          0.85474265	          0.85356873	         -0.36479932	          0.61554289	          0.94357085	         -0.20807162	          0.61175644	          0.94202286	         -0.26209527	          0.72580910	          0.42209733	         -0.07978057	          0.72474629	          0.43145773	         -0.40629306	          0.70862556	          0.42325956	         -0.22389439	          0.72612202	          0.41057804	         -0.25697568	          0.70584005	          0.06300725	         -0.07786056	          0.70244688	          0.06021502	         -0.40217817	          0.72180688	          0.06667269	         -0.15275705	          0.72231591	          0.07223437	         -0.32565865	          0.65354472	          0.05021289	         -0.12461834	          0.67232186	          0.04712784	         -0.33434141	          0.77570891	          1.28961694	         -0.26468304	          0.83421534	          1.22110653	         -0.26478714	          0.65775675	          1.35140157	         -0.24787498	          0.79340518	          1.29680026	         -0.21167159	          0.79115629	          1.29646277	         -0.29429471	          0.82499421	          0.04403251	         -0.10563254	          0.82175452	          0.04843987	         -0.38368300	          0.88530880	          0.57503396	         -0.08895969	          0.90703958	          0.60713208	         -0.34685609	          0.84674346	          0.59694678	         -0.10942418	          0.85891765	          0.62219250	         -0.35003930	          0.81976819	          0.52399224	         -0.11344863	          0.84033775	          0.55060148	         -0.35083458	          0.79899019	          0.20898475	         -0.10351514	          0.68555790	          0.17527862	         -0.46032554	          0.75315231	          0.21444343	         -0.11667529	          0.69156706	          0.18448666	         -0.41183072	
